<mxfile modified="2021-05-19T14:48:36.720Z" host="app.diagrams.net" agent="5.0 (Macintosh; Intel Mac OS X 10_15_7) AppleWebKit/537.36 (KHTML, like Gecko) Chrome/90.0.4430.93 Safari/537.36" etag="sQim-E6pGAX9rnafDQ1u" version="14.4.3" type="github">
  <diagram id="Ht1M8jgEwFfnCIfOTk4-" name="Page-1">
    <mxGraphModel dx="1252" dy="1024" grid="1" gridSize="10" guides="1" tooltips="1" connect="1" arrows="1" fold="1" page="1" pageScale="1" pageWidth="1169" pageHeight="827" math="0" shadow="0">
      <root>
        <mxCell id="0" />
        <mxCell id="1" parent="0" />
        <mxCell id="Zei00fnAz4lTS9uP3AyM-16" value="" style="edgeStyle=orthogonalEdgeStyle;rounded=0;orthogonalLoop=1;jettySize=auto;html=1;" edge="1" parent="1" source="Zei00fnAz4lTS9uP3AyM-3" target="Zei00fnAz4lTS9uP3AyM-5">
          <mxGeometry relative="1" as="geometry" />
        </mxCell>
        <mxCell id="Zei00fnAz4lTS9uP3AyM-3" value="Github Repository" style="shape=image;html=1;verticalAlign=top;verticalLabelPosition=bottom;labelBackgroundColor=#ffffff;imageAspect=0;aspect=fixed;image=https://cdn3.iconfinder.com/data/icons/social-media-2169/24/social_media_social_media_logo_git-128.png;labelPosition=center;align=center;" vertex="1" parent="1">
          <mxGeometry x="200" y="199" width="80" height="80" as="geometry" />
        </mxCell>
        <mxCell id="Zei00fnAz4lTS9uP3AyM-18" value="" style="edgeStyle=orthogonalEdgeStyle;rounded=0;orthogonalLoop=1;jettySize=auto;html=1;" edge="1" parent="1" source="Zei00fnAz4lTS9uP3AyM-4" target="Zei00fnAz4lTS9uP3AyM-6">
          <mxGeometry relative="1" as="geometry" />
        </mxCell>
        <mxCell id="Zei00fnAz4lTS9uP3AyM-4" value="" style="points=[[0,0,0],[0.25,0,0],[0.5,0,0],[0.75,0,0],[1,0,0],[0,1,0],[0.25,1,0],[0.5,1,0],[0.75,1,0],[1,1,0],[0,0.25,0],[0,0.5,0],[0,0.75,0],[1,0.25,0],[1,0.5,0],[1,0.75,0]];points=[[0,0,0],[0.25,0,0],[0.5,0,0],[0.75,0,0],[1,0,0],[0,1,0],[0.25,1,0],[0.5,1,0],[0.75,1,0],[1,1,0],[0,0.25,0],[0,0.5,0],[0,0.75,0],[1,0.25,0],[1,0.5,0],[1,0.75,0]];outlineConnect=0;fontColor=#232F3E;gradientColor=#F34482;gradientDirection=north;fillColor=#BC1356;strokeColor=#ffffff;dashed=0;verticalLabelPosition=bottom;verticalAlign=top;align=center;html=1;fontSize=12;fontStyle=0;aspect=fixed;shape=mxgraph.aws4.resourceIcon;resIcon=mxgraph.aws4.cloudformation;" vertex="1" parent="1">
          <mxGeometry x="518" y="200" width="78" height="78" as="geometry" />
        </mxCell>
        <mxCell id="Zei00fnAz4lTS9uP3AyM-25" value="" style="edgeStyle=orthogonalEdgeStyle;rounded=0;orthogonalLoop=1;jettySize=auto;html=1;" edge="1" parent="1" source="Zei00fnAz4lTS9uP3AyM-5" target="Zei00fnAz4lTS9uP3AyM-24">
          <mxGeometry relative="1" as="geometry" />
        </mxCell>
        <mxCell id="Zei00fnAz4lTS9uP3AyM-5" value="CodePipeline&amp;nbsp;&lt;br&gt;Source Stage&lt;br&gt;Detects Changes&amp;nbsp;" style="points=[[0,0,0],[0.25,0,0],[0.5,0,0],[0.75,0,0],[1,0,0],[0,1,0],[0.25,1,0],[0.5,1,0],[0.75,1,0],[1,1,0],[0,0.25,0],[0,0.5,0],[0,0.75,0],[1,0.25,0],[1,0.5,0],[1,0.75,0]];outlineConnect=0;fontColor=#232F3E;gradientColor=#4D72F3;gradientDirection=north;fillColor=#3334B9;strokeColor=#ffffff;dashed=0;verticalLabelPosition=bottom;verticalAlign=top;align=center;html=1;fontSize=12;fontStyle=0;aspect=fixed;shape=mxgraph.aws4.resourceIcon;resIcon=mxgraph.aws4.codepipeline;labelPosition=center;" vertex="1" parent="1">
          <mxGeometry x="320" y="200" width="78" height="78" as="geometry" />
        </mxCell>
        <mxCell id="Zei00fnAz4lTS9uP3AyM-19" value="" style="edgeStyle=orthogonalEdgeStyle;rounded=0;orthogonalLoop=1;jettySize=auto;html=1;" edge="1" parent="1" source="Zei00fnAz4lTS9uP3AyM-6" target="Zei00fnAz4lTS9uP3AyM-11">
          <mxGeometry relative="1" as="geometry" />
        </mxCell>
        <mxCell id="Zei00fnAz4lTS9uP3AyM-6" value="Change Set&amp;nbsp;&lt;br&gt;Created" style="outlineConnect=0;fontColor=#232F3E;gradientColor=none;fillColor=#BC1356;strokeColor=none;dashed=0;verticalLabelPosition=bottom;verticalAlign=top;align=center;html=1;fontSize=12;fontStyle=0;aspect=fixed;pointerEvents=1;shape=mxgraph.aws4.change_set;" vertex="1" parent="1">
          <mxGeometry x="630" y="200" width="65" height="78" as="geometry" />
        </mxCell>
        <mxCell id="Zei00fnAz4lTS9uP3AyM-7" value="Stack &lt;br&gt;Created/Update" style="outlineConnect=0;fontColor=#232F3E;gradientColor=none;fillColor=#BC1356;strokeColor=none;dashed=0;verticalLabelPosition=bottom;verticalAlign=top;align=center;html=1;fontSize=12;fontStyle=0;aspect=fixed;pointerEvents=1;shape=mxgraph.aws4.stack;" vertex="1" parent="1">
          <mxGeometry x="840" y="201" width="78" height="76" as="geometry" />
        </mxCell>
        <mxCell id="Zei00fnAz4lTS9uP3AyM-15" value="" style="edgeStyle=orthogonalEdgeStyle;rounded=0;orthogonalLoop=1;jettySize=auto;html=1;" edge="1" parent="1" source="Zei00fnAz4lTS9uP3AyM-8" target="Zei00fnAz4lTS9uP3AyM-3">
          <mxGeometry relative="1" as="geometry" />
        </mxCell>
        <mxCell id="Zei00fnAz4lTS9uP3AyM-8" value="CloudFormation &lt;br&gt;Template&lt;br&gt;Pushed to&lt;br&gt;Git repository" style="outlineConnect=0;fontColor=#232F3E;gradientColor=none;fillColor=#BC1356;strokeColor=none;dashed=0;verticalLabelPosition=bottom;verticalAlign=top;align=center;html=1;fontSize=12;fontStyle=0;aspect=fixed;pointerEvents=1;shape=mxgraph.aws4.template;" vertex="1" parent="1">
          <mxGeometry x="100" y="200" width="65" height="78" as="geometry" />
        </mxCell>
        <mxCell id="Zei00fnAz4lTS9uP3AyM-20" value="" style="edgeStyle=orthogonalEdgeStyle;rounded=0;orthogonalLoop=1;jettySize=auto;html=1;" edge="1" parent="1" source="Zei00fnAz4lTS9uP3AyM-11" target="Zei00fnAz4lTS9uP3AyM-7">
          <mxGeometry relative="1" as="geometry" />
        </mxCell>
        <mxCell id="Zei00fnAz4lTS9uP3AyM-11" value="Changes&lt;br&gt;Approved" style="outlineConnect=0;fontColor=#232F3E;gradientColor=none;fillColor=#BC1356;strokeColor=none;dashed=0;verticalLabelPosition=bottom;verticalAlign=top;align=center;html=1;fontSize=12;fontStyle=0;aspect=fixed;pointerEvents=1;shape=mxgraph.aws4.checklist_security;" vertex="1" parent="1">
          <mxGeometry x="740" y="200" width="78" height="78" as="geometry" />
        </mxCell>
        <mxCell id="Zei00fnAz4lTS9uP3AyM-24" value="" style="points=[[0,0,0],[0.25,0,0],[0.5,0,0],[0.75,0,0],[1,0,0],[0,1,0],[0.25,1,0],[0.5,1,0],[0.75,1,0],[1,1,0],[0,0.25,0],[0,0.5,0],[0,0.75,0],[1,0.25,0],[1,0.5,0],[1,0.75,0]];outlineConnect=0;fontColor=#232F3E;gradientColor=#4D72F3;gradientDirection=north;fillColor=#3334B9;strokeColor=#ffffff;dashed=0;verticalLabelPosition=bottom;verticalAlign=top;align=center;html=1;fontSize=12;fontStyle=0;aspect=fixed;shape=mxgraph.aws4.resourceIcon;resIcon=mxgraph.aws4.codepipeline;labelPosition=center;" vertex="1" parent="1">
          <mxGeometry x="440" y="200" width="78" height="78" as="geometry" />
        </mxCell>
        <mxCell id="Zei00fnAz4lTS9uP3AyM-26" value="CodePipeline Deploy Stage&amp;nbsp;&lt;br&gt;Invokes Cloud Formation" style="text;html=1;align=center;verticalAlign=middle;resizable=0;points=[];autosize=1;" vertex="1" parent="1">
          <mxGeometry x="430" y="280" width="170" height="30" as="geometry" />
        </mxCell>
      </root>
    </mxGraphModel>
  </diagram>
</mxfile>
